<?xml version="1.0" encoding="UTF-8" standalone="no"?>
<svg
   width="300"
   height="300"
   viewBox="0 0 300 300"
   fill="none"
   version="1.1"
   id="svg14"
   sodipodi:docname="logo_fiit.svg"
   inkscape:version="1.3.2 (091e20e, 2023-11-25, custom)"
   xmlns:inkscape="http://www.inkscape.org/namespaces/inkscape"
   xmlns:sodipodi="http://sodipodi.sourceforge.net/DTD/sodipodi-0.dtd"
   xmlns="http://www.w3.org/2000/svg"
   xmlns:svg="http://www.w3.org/2000/svg">
  <defs
     id="defs14" />
  <sodipodi:namedview
     id="namedview14"
     pagecolor="#ffffff"
     bordercolor="#666666"
     borderopacity="1.0"
     inkscape:showpageshadow="2"
     inkscape:pageopacity="0.0"
     inkscape:pagecheckerboard="0"
     inkscape:deskcolor="#d1d1d1"
     inkscape:zoom="1.9173472"
     inkscape:cx="199.75516"
     inkscape:cy="134.82169"
     inkscape:window-width="1920"
     inkscape:window-height="1017"
     inkscape:window-x="-8"
     inkscape:window-y="-8"
     inkscape:window-maximized="1"
     inkscape:current-layer="svg14" />
  <path
     d="m 7.5823846,157.37868 c 4.2857144,0 7.5824834,-3.30791 7.5824834,-7.6078 0,-4.30022 -3.296769,-7.6078 -7.5824834,-7.6078 C 3.2966637,142.16308 0,145.47066 0,149.77088 c 0,4.29989 3.2966637,7.6078 7.5823846,7.6078 z"
     fill="#00a9e0"
     id="path1"
     style="stroke-width:3.2967" />
  <path
     d="m 7.5823846,199.38692 c 4.2857144,0 7.5824834,-3.30758 7.5824834,-7.60747 0,-4.30022 -3.296769,-7.6078 -7.5824834,-7.6078 C 3.2966637,184.17165 0,187.47923 0,191.77945 c 0,3.96923 3.2966637,7.60747 7.5823846,7.60747 z"
     fill="#00a9e0"
     id="path2"
     style="stroke-width:3.2967" />
  <path
     d="m 49.450549,157.37868 c 4.285715,0 7.582418,-3.30791 7.582418,-7.6078 0,-4.30022 -3.296703,-7.6078 -7.582418,-7.6078 -4.285714,0 -7.582417,3.30758 -7.582417,7.6078 0,4.29989 3.296703,7.6078 7.582417,7.6078 z"
     fill="#00a9e0"
     id="path3"
     style="stroke-width:3.2967" />
  <path
     d="m 49.450549,199.38692 c 4.285715,0 7.582418,-3.30758 7.582418,-7.60747 0,-4.30022 -3.296703,-7.6078 -7.582418,-7.6078 -4.285714,0 -7.582417,3.30758 -7.582417,7.6078 0,3.96923 3.296703,7.60747 7.582417,7.60747 z"
     fill="#00a9e0"
     id="path4"
     style="stroke-width:3.2967" />
  <path
     d="m 90.989011,157.37868 c 4.285714,0 7.582418,-3.30791 7.582418,-7.6078 0,-4.30022 -3.296704,-7.6078 -7.582418,-7.6078 -4.285714,0 -7.582418,3.30758 -7.582418,7.6078 0,4.29989 3.296704,7.6078 7.582418,7.6078 z"
     fill="#00a9e0"
     id="path5"
     style="stroke-width:3.2967" />
  <path
     d="m 7.5823846,115.70143 c 4.2857144,0 7.5824834,-3.30778 7.5824834,-7.60784 0,-4.30002 -3.296769,-7.60772 -7.5824834,-7.60772 C 3.2966637,100.48587 0,103.79357 0,108.09359 c 0,4.30006 3.2966637,7.60784 7.5823846,7.60784 z"
     fill="#00a9e0"
     id="path6"
     style="stroke-width:3.2967" />
  <path
     d="m 49.450549,115.70143 c 4.285715,0 7.582418,-3.30778 7.582418,-7.60784 0,-4.30002 -3.296703,-7.60772 -7.582418,-7.60772 -4.285714,0 -7.582417,3.3077 -7.582417,7.60772 0,4.30006 3.296703,7.60784 7.582417,7.60784 z"
     fill="#00a9e0"
     id="path7"
     style="stroke-width:3.2967" />
  <path
     d="m 90.989011,115.70143 c 4.285714,0 7.582418,-3.30778 7.582418,-7.60784 0,-4.30002 -3.296704,-7.60772 -7.582418,-7.60772 -4.285714,0 -7.582418,3.3077 -7.582418,7.60772 0,4.30006 3.296704,7.60784 7.582418,7.60784 z"
     fill="#00a9e0"
     id="path8"
     style="stroke-width:3.2967" />
  <path
     d="m 90.989011,199.38692 c 4.285714,0 7.582418,-3.30758 7.582418,-7.60747 0,-4.30022 -3.296704,-7.6078 -7.582418,-7.6078 -4.285714,0 -7.582418,3.30758 -7.582418,7.6078 0,3.96923 3.296704,7.60747 7.582418,7.60747 z"
     fill="#00a9e0"
     id="path9"
     style="stroke-width:3.2967" />
  <path
     d="m 132.52747,157.37868 c 4.28572,0 7.58242,-3.30791 7.58242,-7.6078 0,-4.30022 -3.2967,-7.6078 -7.58242,-7.6078 -4.28571,0 -7.58242,3.30758 -7.58242,7.6078 0,4.29989 3.62638,7.6078 7.58242,7.6078 z"
     fill="#00a9e0"
     id="path10"
     style="stroke-width:3.2967" />
  <path
     d="m 132.52747,199.38692 c 4.28572,0 7.58242,-3.30758 7.58242,-7.60747 0,-4.30022 -3.2967,-7.6078 -7.58242,-7.6078 -4.28571,0 -7.58242,3.30758 -7.58242,7.6078 0,3.96923 3.62638,7.60747 7.58242,7.60747 z"
     fill="#00a9e0"
     id="path11"
     style="stroke-width:3.2967" />
  <path
     d="m 132.52747,115.70143 c 4.28572,0 7.58242,-3.30778 7.58242,-7.60784 0,-4.30002 -3.2967,-7.60772 -7.58242,-7.60772 -4.28571,0 -7.58242,3.3077 -7.58242,7.60772 0,4.30006 3.62638,7.60784 7.58242,7.60784 z"
     fill="#00a9e0"
     id="path12"
     style="stroke-width:3.2967" />
  <path
     d="m 286.15385,198.7256 c 0.32967,0 0.65934,-0.33065 0.65934,-0.66164 v -34.7311 c 0,-0.33066 0,-0.33066 0.32967,-0.33066 h 9.89011 c 0.32967,0 0.65934,-0.33099 0.65934,-0.66165 v -3.63857 c 0,-0.33066 -0.32967,-0.66132 -0.65934,-0.66132 h -26.04396 c -0.32967,0 -0.65934,0.33066 -0.65934,0.66132 v 3.63857 c 0,0.33066 0.32967,0.66165 0.65934,0.66165 h 9.56044 c 0.32967,0 0.32967,0.33066 0.32967,0.33066 v 34.7311 c 0,0.33099 0.32967,0.66164 0.65934,0.66164 z m -39.56044,-40.35428 c -0.32967,0 -0.65934,0.33066 -0.65934,0.66165 v 39.36198 c 0,0.33065 0.32967,0.66131 0.65934,0.66131 h 4.61538 c 0.32967,0 0.65934,-0.33066 0.65934,-0.66131 v -39.36198 c 0,-0.33099 -0.32967,-0.66165 -0.65934,-0.66165 z m -27.36264,0 c -0.32967,0 -0.65934,0.33066 -0.65934,0.66165 v 39.36198 c 0,0.33065 0.32967,0.66131 0.65934,0.66131 h 4.61538 c 0.32967,0 0.65934,-0.33066 0.65934,-0.66131 v -39.36198 c 0,-0.33099 -0.32967,-0.66165 -0.65934,-0.66165 z m -35.6044,4.96154 c 0,-0.33066 0.32967,-0.33066 0.32967,-0.33066 h 15.82418 c 0.32967,0 0.65934,-0.33099 0.65934,-0.66165 v -3.63857 c 0,-0.33066 -0.32967,-0.66132 -0.65934,-0.66132 h -21.0989 c -0.32967,0 -0.65934,0.33066 -0.65934,0.66132 v 39.36198 c 0,0.33099 0.32967,0.66164 0.65934,0.66164 h 4.61538 c 0.32967,0 0.65934,-0.33065 0.65934,-0.66164 v -17.53088 h 12.52748 c 0.32967,0 0.65934,-0.33066 0.65934,-0.66165 v -3.63824 c 0,-0.33099 -0.32967,-0.66165 -0.65934,-0.66165 h -12.52748 v -12.23868 z"
     fill="#000000"
     id="path13"
     style="stroke-width:3.2967" />
  <path
     d="m 299.67033,101.80894 c 0,-0.66155 -0.32967,-0.66159 -0.65934,-0.66159 h -7.58242 c -0.32967,0 -0.65934,0.33081 -0.65934,0.66159 v 27.12341 c 0,3.9693 -2.30769,5.95391 -6.59341,5.95391 -4.28571,0 -6.5934,-1.98461 -6.5934,-5.95391 v -27.12341 c 0,-0.66155 -0.32967,-0.66159 -0.65934,-0.66159 h -7.58242 c -0.65934,0 -0.65934,0.33081 -0.65934,0.66159 v 27.4541 c 0,7.9385 4.28571,12.90037 15.4945,12.90037 10.87913,0 15.49451,-4.96187 15.49451,-12.90037 z m -60.98901,39.69282 c 0.65934,0 0.65934,-0.33099 0.65934,-0.66165 v -32.08493 c 0,-0.33076 0,-0.3308 0.32967,-0.3308 h 9.56044 c 0.32967,0 0.65934,-0.33079 0.65934,-0.66158 v -5.62307 c 0,-0.66155 -0.32967,-0.66158 -0.65934,-0.66158 h -28.68132 c -0.65934,0 -0.65934,0.33081 -0.65934,0.66158 v 5.62307 c 0,0.66155 0.32967,0.66158 0.65934,0.66158 h 9.23077 c 0.32967,0 0.32967,0.3308 0.32967,0.3308 v 32.08493 c 0,0.66165 0.32967,0.66165 0.65934,0.66165 z M 176.7033,139.8478 c 3.95604,1.98462 7.58241,2.31561 12.1978,2.31561 8.57143,0 14.17582,-4.30022 14.17582,-12.23878 0,-5.62312 -2.63736,-9.26166 -9.56044,-12.23862 -5.93406,-2.31541 -6.92307,-3.63844 -6.92307,-5.62309 0,-2.3154 1.64835,-3.96933 5.27472,-3.96933 2.63736,0 4.94506,0.33076 6.92308,1.3231 0.65934,0.33076 0.98901,7e-5 0.98901,-0.33069 l 2.63736,-5.2924 c 0.32967,-0.33079 0.32967,-0.66161 -0.32967,-0.99237 -3.95604,-1.65388 -6.5934,-2.31536 -11.86813,-2.31536 -8.24176,0 -13.18681,4.96159 -13.18681,11.57705 0,5.95392 2.96703,9.59239 9.89011,12.56934 5.27472,2.31541 6.5934,3.63854 6.5934,5.95398 0,2.31541 -1.97802,3.96936 -5.27472,3.96936 -3.95605,0 -5.93407,-0.66164 -8.24176,-1.98494 -0.32967,-0.33066 -0.65934,0 -0.98901,0.33099 l -2.63736,5.95384 c 0,0.33099 0,0.66165 0.32967,0.99231 z"
     fill="#000000"
     id="path14"
     style="stroke-width:3.2967" />
</svg>
